<svg width="59" height="48" viewBox="0 0 59 48" fill="none" xmlns="http://www.w3.org/2000/svg">
<g clip-path="url(#clip0_91_2)">
<path d="M58.9999 14.7692C58.9964 15.6635 58.6688 16.5262 58.078 17.1969L32.2655 46.7354C31.9195 47.1283 31.4939 47.4429 31.0171 47.6585C30.5402 47.874 30.0231 47.9855 29.4999 47.9855C28.9767 47.9855 28.4596 47.874 27.9827 47.6585C27.5059 47.4429 27.0803 47.1283 26.7343 46.7354L0.921776 17.1969C0.306159 16.4923 -0.0191591 15.5798 0.0116476 14.6441C0.0424544 13.7085 0.427085 12.8194 1.08771 12.1569L12.1502 1.08C12.8401 0.389994 13.7748 0.00167542 14.7499 1.14166e-06H44.2499C44.7343 -0.000380255 45.214 0.0948028 45.6617 0.280113C46.1093 0.465423 46.5161 0.737228 46.8588 1.08L57.9213 12.1569C58.2636 12.5001 58.5351 12.9074 58.7202 13.3556C58.9052 13.8039 59.0003 14.2842 58.9999 14.7692Z" fill="#9EB9FF"/>
<path d="M23.9687 0L16.5938 14.7692H29.5H42.4062L35.0312 0H23.9687Z" fill="#6E96FF"/>
<path d="M16.5938 14.7693L29.5 48.0001C28.9757 47.9982 28.4579 47.8845 27.981 47.6664C27.5041 47.4484 27.0791 47.131 26.7344 46.7354L0.921875 17.197C0.331098 16.5262 0.00352499 15.6636 0 14.7693H16.5938Z" fill="#6E96FF"/>
<path d="M59 14.7693C58.9965 15.6636 58.6689 16.5262 58.0781 17.197L32.2656 46.7354C31.9209 47.131 31.4959 47.4484 31.019 47.6664C30.5421 47.8845 30.0243 47.9982 29.5 48.0001L42.4062 14.7693H59Z" fill="#6E96FF"/>
<path d="M58.9999 14.7692C58.9964 15.6635 58.6688 16.5262 58.078 17.1969L32.2655 46.7354C31.9195 47.1283 31.4939 47.4429 31.0171 47.6585C30.5402 47.874 30.0231 47.9855 29.4999 47.9855C28.9767 47.9855 28.4596 47.874 27.9827 47.6585C27.5059 47.4429 27.0803 47.1283 26.7343 46.7354L0.921776 17.1969C0.306159 16.4923 -0.0191591 15.5798 0.0116476 14.6441C0.0424544 13.7085 0.427085 12.8194 1.08771 12.1569L12.1502 1.08C12.8401 0.389994 13.7748 0.00167542 14.7499 1.14166e-06H44.2499C44.7343 -0.000380255 45.214 0.0948028 45.6617 0.280113C46.1093 0.465423 46.5161 0.737228 46.8588 1.08L57.9213 12.1569C58.2636 12.5001 58.5351 12.9074 58.7202 13.3556C58.9052 13.8039 59.0003 14.2842 58.9999 14.7692Z" fill="#9EB9FF"/>
<path d="M23.9687 0L16.5938 14.7692H29.5H42.4062L35.0312 0H23.9687Z" fill="#6E96FF"/>
<path d="M16.5938 14.7693L29.5 48.0001C28.9757 47.9982 28.4579 47.8845 27.981 47.6664C27.5041 47.4484 27.0791 47.131 26.7344 46.7354L0.921875 17.197C0.331098 16.5262 0.00352499 15.6636 0 14.7693H16.5938Z" fill="#6E96FF"/>
<path d="M59 14.7693C58.9965 15.6636 58.6689 16.5262 58.0781 17.197L32.2656 46.7354C31.9209 47.131 31.4959 47.4484 31.019 47.6664C30.5421 47.8845 30.0243 47.9982 29.5 48.0001L42.4062 14.7693H59Z" fill="#6E96FF"/>
</g>
<defs>
<clipPath id="clip0_91_2">
<rect width="59" height="48" fill="white"/>
</clipPath>
</defs>
</svg>
